<svg xmlns="http://www.w3.org/2000/svg">
  <symbol id="i-menu" viewBox="0 0 24 24"><path d="M4 7h16M4 12h16M4 17h16"/></symbol>
  <symbol id="i-shield" viewBox="0 0 24 24"><path d="M12 3l7 3v5c0 5-3.5 8-7 9-3.5-1-7-4-7-9V6z"/><path d="M9 12l2 2 4-4"/></symbol>
  <symbol id="i-chat" viewBox="0 0 24 24"><path d="M21 11.5a8.4 8.4 0 0 1-9 8.5 8.5 8.5 0 0 1-3.8-.9L3 21l1.9-5.2A8.5 8.5 0 1 1 21 11.5z"/></symbol>
  <symbol id="i-alert" viewBox="0 0 24 24"><path d="M10.3 3.7 1.7 18a2 2 0 0 0 1.7 3h17.2a2 2 0 0 0 1.7-3L13.7 3.7a2 2 0 0 0-3.4 0z"/><path d="M12 9v4"/><path d="M12 17h.01"/></symbol>
  <symbol id="i-lock" viewBox="0 0 24 24"><rect x="3" y="11" width="18" height="11" rx="2"/><path d="M7 11V7a5 5 0 0 1 10 0v4"/></symbol>
  <symbol id="i-sparkles" viewBox="0 0 24 24"><path d="M12 3l1.7 4.6L18 9l-4.3 1.4L12 15l-1.7-4.6L6 9l4.3-1.4z"/></symbol>
  <symbol id="i-clock" viewBox="0 0 24 24"><circle cx="12" cy="12" r="9"/><path d="M12 7v5l3 2"/></symbol>
  <symbol id="i-church" viewBox="0 0 24 24"><path d="M12 3v18M5 21V10l7-4 7 4v11M9 21v-4a3 3 0 0 1 6 0v4"/></symbol>
  <symbol id="i-book" viewBox="0 0 24 24"><path d="M4 5a2 2 0 0 1 2-2h13v18H6a2 2 0 0 1-2-2z"/><path d="M19 17H6"/></symbol>
  <symbol id="i-heart" viewBox="0 0 24 24"><path d="M12 21S4 16 4 9.5A4.5 4.5 0 0 1 12 7a4.5 4.5 0 0 1 8 2.5C20 16 12 21 12 21z"/></symbol>
  <symbol id="i-device" viewBox="0 0 24 24"><rect x="7" y="2" width="10" height="20" rx="2"/><path d="M11 18h2"/></symbol>
  <symbol id="i-users" viewBox="0 0 24 24"><path d="M16 21v-2a4 4 0 0 0-4-4H6a4 4 0 0 0-4 4v2"/><circle cx="9" cy="7" r="4"/><path d="M22 21v-2a4 4 0 0 0-3-3.87"/><path d="M16 3.13a4 4 0 0 1 0 7.75"/></symbol>
  <symbol id="i-check" viewBox="0 0 24 24"><path d="M20 6 9 17l-5-5"/></symbol>
</svg>
